<svg xmlns="http://www.w3.org/2000/svg" xml:space="preserve" width="1500" height="305" data-id="lg_c6jTwDh83sHqYRHcno" data-version="1" viewBox="0 0 1500 305"><g data-padding="20"><g transform="translate(10 5.466)scale(.96416)"><rect width="587.286" height="200.01" x="219.525" y="-99.915" fill="none" rx="0" ry="0" transform="matrix(.95 0 0 .95 280 209.84)"/><path fill="#008dff" d="M537.143 264.426q-9.082 0-16.558-4.626-7.486-4.617-11.942-12.274-4.455-7.648-4.455-16.9v-7.734q0-.836.845-.836h18.83q.674 0 .674.836v7.733q0 5.557 3.696 9.5 3.705 3.952 8.91 3.952 5.216 0 8.912-4.028 3.705-4.037 3.705-9.424 0-6.213-8.075-10.754-2.689-1.52-8.408-4.712t-10.763-6.05q-9.244-5.388-13.7-13.539t-4.455-18.41q0-9.415 4.541-16.9t12.018-11.857q7.486-4.37 16.226-4.37 8.91 0 16.397 4.455 7.486 4.456 11.941 11.942 4.456 7.476 4.456 16.73v13.784q0 .674-.675.674h-18.829q-.674 0-.674-.674l-.172-13.785q0-5.89-3.695-9.585-3.705-3.696-8.75-3.696-5.206 0-8.91 3.943-3.696 3.952-3.696 9.338 0 5.548 2.356 9.244 2.346 3.705 8.57 7.068.844.503 3.276 1.767 2.442 1.254 5.301 2.85 2.86 1.605 5.13 2.783 2.271 1.17 2.774 1.51 8.408 4.703 13.281 11.515 4.874 6.811 4.874 16.73 0 9.585-4.455 17.242-4.456 7.647-11.933 12.103-7.485 4.455-16.567 4.455m64.571-1.682h-19q-.846 0-.846-.836l.171-115.52q0-.674.675-.674h18.83q.674 0 .674.675l.17 115.52q0 .835-.674.835m35.14 0h-19q-.664 0-.664-.836l.332-115.52q0-.674.675-.674h20.51q.675 0 1.178.675l15.305 22.191 15.295-22.192q.503-.674 1.178-.674h20.681q.675 0 .675.675l.342 115.52q0 .835-.675.835h-19q-.674 0-.674-.836l-.17-85.756-17.652 25.555-17.49-25.555-.17 85.756q0 .836-.675.836m90.288.001h-18.829q-.846 0-.846-.837l.342-115.52q0-.674.675-.674h32.281q15.466 0 24.462 9.414t8.997 25.565q0 11.932-4.702 20.681-4.712 8.74-12.274 13.452-7.572 4.703-16.483 4.703H727.99v42.38q0 .835-.845.835m.845-96.852v33.297h12.778q5.377 0 9.33-5.13t3.951-13.366q0-6.565-3.524-10.764-3.534-4.208-9.757-4.208Zm112.67 96.853h-54.31q-.676 0-.676-.837l.171-115.358q0-.836.836-.836h18.667q.836 0 .836.836l-.16 95.513h34.636q.836 0 .836.845v19q0 .836-.836.836m31.607 0h-19q-.836 0-.836-.836l.161-115.52q0-.674.675-.674h18.838q.665 0 .665.675l.171 115.52q0 .835-.674.835m46.417-.169-30.106.17q-.836 0-.836-.836l.332-115.52q0-.674.675-.674l31.445-.17q9.243-.163 16.9 4.37 7.648 4.54 12.19 12.197 4.54 7.648 4.54 16.9v48.251q0 9.756-4.712 17.746-4.702 7.99-12.606 12.692-7.904 4.712-17.822 4.874m-10.26-96.682-.17 76.171h10.43q6.212 0 10.506-4.37 4.285-4.37 4.285-10.43V178.84q0-5.386-3.952-9.338-3.952-3.943-9.329-3.78Zm85.756 98.534q-9.082 0-16.568-4.626-7.476-4.618-12.017-12.275-4.54-7.647-4.54-16.9l.17-53.295q0-9.253 4.455-16.815 4.456-7.572 12.018-12.113 7.571-4.54 16.482-4.54 9.082 0 16.483 4.54 7.39 4.541 11.846 12.113 4.456 7.562 4.456 16.815l.17 53.295q0 9.253-4.455 16.9-4.455 7.657-11.94 12.274-7.478 4.627-16.56 4.627m0-20.349q5.045 0 8.826-4.113 3.78-4.123 3.78-9.339l-.16-53.295q0-5.558-3.535-9.424t-8.91-3.867q-5.216 0-8.912 3.781-3.705 3.791-3.705 9.51v53.295q0 5.557 3.705 9.5 3.696 3.952 8.911 3.952M737.397 1.012c-1.39 2.03-2.78 4.17-4.17 6.2-2.07-1.613-6.797-.876-9.09-.668a83.4 83.4 0 0 0-12.65 2.474 1.223 1.223 0 0 0-.542 2.058 84.8 84.8 0 0 0-.723 19.126 1.293 1.293 0 0 0 1.168 2.21q1.265-.32 2.53-.556 1.14-.222 2.28-.375c.07 0 .152.25.222.236a36 36 0 0 1 5.004-.167.97.97 0 0 1 .584.362 2.085 2.085 0 0 0 3.308-.737q1.584 0 3.197.195h.43q1.641.194 3.295.486a1.25 1.25 0 0 0 1.39-.598c.973.112 2.002-.834 1.28-1.82-1.32-1.794-.668-5.366-.668-7.45v-7.84q-.014-.43.07-.862v-.084q3.085-5.24 6.63-10.133c1.57-2.182-2.044-4.267-3.545-2.057m-8.062 27.897-.862-.097-1.737-.167h-.32q2.405-5.49 5.254-10.717v5.922a18 18 0 0 0 .278 5.462q-1.306-.25-2.613-.403m-12.649 0-1.084.14q-1.432.208-2.878.5a86 86 0 0 1-.194-4.268v-5.949c2.377 2.99 4.378 6.27 6.741 9.271l-.834.084Zm7.41-19.89a19.5 19.5 0 0 1 5.795-.084 4 4 0 0 1 .681.236l.21.098.277.18a1.4 1.4 0 0 1 .417.445 147 147 0 0 0-8.605 16.486c-3.127-3.795-5.56-8.132-8.84-11.788a1.95 1.95 0 0 0-.973-.597q.14-1.46.361-2.92a72 72 0 0 1 10.676-2.029ZM711.39 71.345a47.26 47.26 0 0 1 20.85-.556 1.25 1.25 0 0 0 1.39-.584c.973.111 2.002-.834 1.28-1.807-1.32-1.793-.668-5.365-.668-7.45v-7.103c0-2.043.945-6.116-.876-7.728s-6.95-.973-9.243-.765a83.4 83.4 0 0 0-12.65 2.474 1.223 1.223 0 0 0-.542 2.057 84.8 84.8 0 0 0-.709 19.252 1.293 1.293 0 0 0 1.168 2.21m2.043-21.364a72 72 0 0 1 10.662-2.057 19.5 19.5 0 0 1 5.796-.084c2.46.598 1.807 2.071 1.793 4.267V62.7a18 18 0 0 0 .278 5.463 51.4 51.4 0 0 0-19.224.278 82 82 0 0 1 .695-18.445Zm76.978-28.119c10.48 1.751 20.78 3.183 31.094-.167 1.543-.5.89-2.947-.667-2.446-12.872 4.17-25.604.514-38.545-1.25a122.3 122.3 0 0 0-34.875.43c-1.612.236-.93 2.682.667 2.446 14.345-2.127 28.064-1.376 42.326.987m-6.436 33.36a122.3 122.3 0 0 0-34.875.43c-1.612.237-.93 2.684.667 2.447 14.331-2.168 28.064-1.39 42.326.973 10.48 1.752 20.78 3.183 31.094-.167 1.543-.5.89-2.946-.667-2.446-12.83 4.184-25.604.528-38.545-1.237m38.532 38.433c-12.872 4.17-25.604.515-38.545-1.25a122.3 122.3 0 0 0-34.875.43c-1.612.237-.93 2.683.667 2.447 14.331-2.169 28.064-1.39 42.326.973 10.48 1.751 20.78 3.183 31.094-.167 1.557-.556.89-2.947-.667-2.433m-85.11-14.803q-2.085 3.016-4.17 6.144c-2.057-1.64-6.825-.904-9.118-.68a83.4 83.4 0 0 0-12.65 2.473 1.223 1.223 0 0 0-.542 2.057 84.8 84.8 0 0 0-.695 19.196 1.293 1.293 0 0 0 1.168 2.21q1.265-.306 2.516-.556 1.14-.222 2.293-.39h.181a49 49 0 0 1 4.976-.444l.654.71a2.085 2.085 0 0 0 3.35-.668c1.056 0 2.112.14 3.183.264h.417q1.64.18 3.28.514a1.25 1.25 0 0 0 1.39-.584c.973.112 2.002-.834 1.28-1.807-1.32-1.793-.668-5.365-.668-7.45v-7.089c0-.25.153-.528.18-.82.028-.292.21-.556.21-.862 1.39-3.46 4.17-6.839 6.476-10.147 1.543-2.196-2.21-4.28-3.71-2.07m-8.049 27.8-.89-.098-1.696-.167h-.305q2.39-5.449 5.212-10.648v5.838a18 18 0 0 0 .278 5.463Zm-12.65 0-1.139.152q-1.432.208-2.78.5a96 96 0 0 1-.208-4.879v-5.254c2.363 2.975 4.336 6.213 6.672 9.202l-.89.097Zm7.396-19.878a19.5 19.5 0 0 1 5.796-.083 4 4 0 0 1 .695.236l.195.097.305.195s.278.083.334.14c.056.054.417.207.417.32-4.17 5.322-6.255 10.827-8.785 16.526-3.127-3.795-5.56-8.132-8.924-11.788a2.1 2.1 0 0 0-1.014-.597q.14-1.502.347-2.989a71 71 0 0 1 10.634-2.03Z"/></g><path fill="transparent" stroke="transparent" d="M471 0h558v305H471z"/></g></svg>